<?xml version="1.0" standalone="no"?>
<!DOCTYPE svg PUBLIC "-//W3C//DTD SVG 20010904//EN"
 "http://www.w3.org/TR/2001/REC-SVG-20010904/DTD/svg10.dtd">
<svg version="1.0" xmlns="http://www.w3.org/2000/svg"
 width="180.000000pt" height="180.000000pt" viewBox="0 0 180.000000 180.000000"
 preserveAspectRatio="xMidYMid meet">

<g transform="translate(0.000000,180.000000) scale(0.100000,-0.100000)"
fill="#000000" stroke="none">
<path d="M236 1652 c-2 -4 -7 -24 -11 -44 -4 -20 -13 -39 -21 -42 -8 -3 -14
-11 -14 -18 0 -16 -58 -72 -82 -81 -10 -4 -18 -10 -18 -15 0 -5 -20 -15 -45
-22 -25 -7 -45 -16 -45 -20 0 -5 18 -11 39 -15 29 -5 56 -22 100 -63 34 -30
61 -62 61 -69 0 -7 4 -13 10 -13 5 0 15 -20 21 -45 14 -54 24 -57 34 -9 18 96
132 204 215 204 36 0 21 17 -25 29 -25 6 -45 16 -45 21 0 6 -6 10 -13 10 -7 0
-33 20 -59 45 -33 32 -52 60 -65 100 -17 52 -26 64 -37 47z"/>
<path d="M520 1535 c0 -108 1 -115 20 -115 11 0 20 -4 20 -10 0 -5 9 -10 20
-10 29 0 86 -25 112 -49 12 -12 24 -21 27 -21 4 0 13 -15 20 -32 8 -18 21 -37
28 -43 7 -5 16 -34 20 -62 l6 -53 112 0 112 0 6 52 c4 29 11 54 17 56 5 2 10
9 10 15 0 7 12 26 26 42 14 17 31 37 38 46 13 18 87 49 116 49 11 0 20 5 20
10 0 6 18 10 40 10 22 0 40 -4 40 -9 0 -5 18 -11 40 -15 48 -7 79 -23 99 -50
8 -10 22 -26 33 -35 10 -8 23 -30 29 -48 6 -18 15 -33 20 -33 5 0 9 -38 9 -85
0 -47 -3 -85 -8 -85 -4 0 -13 -19 -20 -42 -13 -40 -95 -137 -117 -138 -6 0
-28 -20 -50 -45 -22 -25 -45 -45 -51 -45 -6 0 -28 -20 -50 -43 -21 -24 -49
-49 -62 -56 -13 -7 -42 -32 -65 -57 -23 -24 -45 -44 -49 -44 -5 0 -28 -20 -51
-45 -24 -25 -48 -45 -53 -45 -5 0 -24 -16 -41 -35 -18 -19 -35 -35 -38 -35 -6
0 -30 21 -93 82 -27 27 -53 48 -57 48 -5 0 -27 19 -50 43 -23 23 -59 56 -80
72 -43 33 -85 76 -85 87 0 4 -9 9 -20 13 -10 3 -41 28 -67 55 -26 27 -52 50
-56 50 -5 0 -30 22 -56 48 -46 47 -81 113 -81 152 0 11 -4 20 -10 20 -5 0 -10
9 -10 20 0 19 -7 20 -105 20 l-105 0 0 -36 c0 -48 29 -174 41 -174 5 0 9 -6 9
-14 0 -28 36 -79 102 -147 37 -38 71 -69 75 -69 5 0 27 -20 50 -44 23 -25 51
-50 63 -56 11 -6 38 -29 58 -51 20 -21 42 -39 47 -39 6 0 28 -20 50 -45 22
-25 44 -45 50 -45 5 0 30 -21 56 -47 26 -27 64 -61 85 -78 21 -16 46 -40 57
-52 12 -13 24 -23 29 -23 5 0 28 -20 51 -45 24 -25 48 -45 53 -45 6 0 19 10
30 23 11 12 37 36 58 52 21 17 58 49 82 72 23 24 46 43 50 43 4 0 28 20 53 45
115 112 183 175 189 175 7 0 60 48 169 150 24 22 45 40 49 40 11 0 84 77 84
89 0 6 5 11 10 11 6 0 18 17 28 38 9 20 22 43 29 50 7 7 18 40 25 72 6 33 16
60 20 60 4 0 8 41 8 90 0 50 -4 90 -8 90 -4 0 -14 27 -21 61 -8 33 -19 66 -26
72 -6 7 -20 30 -31 52 -10 22 -27 46 -37 54 -11 8 -29 25 -40 38 -11 12 -27
23 -34 23 -8 0 -16 7 -19 15 -4 8 -12 15 -18 15 -7 0 -22 9 -33 19 -52 49
-273 68 -393 34 -33 -9 -60 -19 -60 -23 0 -4 -13 -13 -30 -20 -16 -7 -30 -16
-30 -21 0 -4 -15 -15 -34 -24 -18 -9 -39 -27 -46 -40 -18 -33 -32 -31 -53 5
-10 17 -24 30 -30 30 -7 0 -25 11 -41 25 -16 14 -35 25 -42 25 -7 0 -19 6 -26
13 -24 23 -71 38 -135 44 -34 3 -63 10 -63 14 0 5 -4 9 -10 9 -6 0 -10 -45
-10 -115z"/>
</g>
</svg>
